<?xml version="1.0" encoding="UTF-8" standalone="no"?>
<svg xmlns="http://www.w3.org/2000/svg"
     xmlns:xlink="http://www.w3.org/1999/xlink"
     width="576pt" height="432pt" viewBox="0 0 576 432">
<title>gl2ps_renderer figure</title>
<desc>
Creator: GL2PS 1.4.0, (C) 1999-2017 C. Geuzaine
For: Octave
CreationDate: Thu Dec 26 15:51:25 2019
</desc>
<defs>
</defs>
<polygon fill="#ffffff" points="0,0 576,0 576,432 0,432"/>
<g>
<polygon fill="#ffffff" points="0,432 576,432 576,0 0,0" shape-rendering="crispEdges"/>
<clipPath id="cp00576432">
  <polygon points="0,432 576,432 576,0 0,0"/>
</clipPath>
<g clip-path="url(#cp00576432)">
<polygon fill="#ffffff" shape-rendering="crispEdges" points="74.88,384.48 521.28,384.48 74.88,32.4"/>
<polygon fill="#ffffff" shape-rendering="crispEdges" points="521.28,384.48 521.28,32.4 74.88,32.4"/>
<polyline fill="none" stroke="#262626" stroke-width="0.5" stroke-linecap="butt" stroke-linejoin="miter" points="130.68,384.48 130.68,380.015"/>
<polyline fill="none" stroke="#262626" stroke-width="0.5" stroke-linecap="butt" stroke-linejoin="miter" points="130.68,32.4 130.68,36.865"/>
<polyline fill="none" stroke="#262626" stroke-width="0.5" stroke-linecap="butt" stroke-linejoin="miter" points="186.48,384.48 186.48,380.015"/>
<polyline fill="none" stroke="#262626" stroke-width="0.5" stroke-linecap="butt" stroke-linejoin="miter" points="186.48,32.4 186.48,36.865"/>
<polyline fill="none" stroke="#262626" stroke-width="0.5" stroke-linecap="butt" stroke-linejoin="miter" points="242.28,384.48 242.28,380.015"/>
<polyline fill="none" stroke="#262626" stroke-width="0.5" stroke-linecap="butt" stroke-linejoin="miter" points="242.28,32.4 242.28,36.865"/>
<polyline fill="none" stroke="#262626" stroke-width="0.5" stroke-linecap="butt" stroke-linejoin="miter" points="298.08,384.48 298.08,380.015"/>
<polyline fill="none" stroke="#262626" stroke-width="0.5" stroke-linecap="butt" stroke-linejoin="miter" points="298.08,32.4 298.08,36.865"/>
<polyline fill="none" stroke="#262626" stroke-width="0.5" stroke-linecap="butt" stroke-linejoin="miter" points="353.88,384.48 353.88,380.015"/>
<polyline fill="none" stroke="#262626" stroke-width="0.5" stroke-linecap="butt" stroke-linejoin="miter" points="353.88,32.4 353.88,36.865"/>
<polyline fill="none" stroke="#262626" stroke-width="0.5" stroke-linecap="butt" stroke-linejoin="miter" points="409.68,384.48 409.68,380.015"/>
<polyline fill="none" stroke="#262626" stroke-width="0.5" stroke-linecap="butt" stroke-linejoin="miter" points="409.68,32.4 409.68,36.865"/>
<polyline fill="none" stroke="#262626" stroke-width="0.5" stroke-linecap="butt" stroke-linejoin="miter" points="465.48,384.48 465.48,380.015"/>
<polyline fill="none" stroke="#262626" stroke-width="0.5" stroke-linecap="butt" stroke-linejoin="miter" points="465.48,32.4 465.48,36.865"/>
<text xml:space="preserve" transform="translate(107.18,411.481) rotate(-0,23.5,-22)" font-family="FreeSans" font-weight="normal" font-style="normal" font-size="10"><tspan y="-12" fill="rgb(38,38,38)" x="0 7 12 17 22 27 30 32 34 39 44 ">Cache line:</tspan><tspan y="-1" fill="rgb(38,38,38)" x="2 8 14 17 23 29 32 38 ">16 32 64</tspan></text>
<text xml:space="preserve" transform="translate(161.98,411.481) rotate(-0,24.5,-22)" font-family="FreeSans" font-weight="normal" font-style="normal" font-size="10"><tspan y="-12" fill="rgb(38,38,38)" x="0 6 12 18 21 26 31 36 41 46 ">L1d assoc:</tspan><tspan y="-1" fill="rgb(38,38,38)" x="8 14 17 23 26 32 35 ">1 2 4 8</tspan></text>
<text xml:space="preserve" transform="translate(209.78,411.481) rotate(-0,32.5,-22)" font-family="FreeSans" font-weight="normal" font-style="normal" font-size="10"><tspan y="-12" fill="rgb(38,38,38)" x="12 18 24 30 33 38 40 45 50 ">L1d size:</tspan><tspan y="-1" fill="rgb(38,38,38)" x="0 6 12 15 21 27 30 36 42 48 51 58 ">32 64 128 KB</tspan></text>
<text xml:space="preserve" transform="translate(275.58,411.481) rotate(-0,22.5,-22)" font-family="FreeSans" font-weight="normal" font-style="normal" font-size="10"><tspan y="-12" fill="rgb(38,38,38)" x="0 6 12 14 17 22 27 32 37 42 ">L1i assoc:</tspan><tspan y="-1" fill="rgb(38,38,38)" x="6 12 15 21 24 30 33 ">1 2 4 8</tspan></text>
<text xml:space="preserve" transform="translate(321.38,411.481) rotate(-0,32.5,-22)" font-family="FreeSans" font-weight="normal" font-style="normal" font-size="10"><tspan y="-12" fill="rgb(38,38,38)" x="14 20 26 28 31 36 38 43 48 ">L1i size:</tspan><tspan y="-1" fill="rgb(38,38,38)" x="0 6 12 15 21 27 30 36 42 48 51 58 ">32 64 128 KB</tspan></text>
<text xml:space="preserve" transform="translate(388.18,411.481) rotate(-0,21.5,-22)" font-family="FreeSans" font-weight="normal" font-style="normal" font-size="10"><tspan y="-12" fill="rgb(38,38,38)" x="0 6 12 15 20 25 30 35 40 ">L2 assoc:</tspan><tspan y="-1" fill="rgb(38,38,38)" x="5 11 14 20 23 29 32 ">1 2 4 8</tspan></text>
<text xml:space="preserve" transform="translate(430.48,411.481) rotate(-0,35,-22)" font-family="FreeSans" font-weight="normal" font-style="normal" font-size="10"><tspan y="-12" fill="rgb(38,38,38)" x="0 6 12 15 20 22 27 32 35 38 44 50 56 63 ">L2 size: 512KB</tspan><tspan y="-1" fill="rgb(38,38,38)" x="14 20 23 29 32 38 41 49 ">1 2 4 MB</tspan></text>
<polyline fill="none" stroke="#262626" stroke-width="0.5" stroke-linecap="butt" stroke-linejoin="miter" points="74.88,384.48 79.348,384.48"/>
<polyline fill="none" stroke="#262626" stroke-width="0.5" stroke-linecap="butt" stroke-linejoin="miter" points="521.28,384.48 516.812,384.48"/>
<polyline fill="none" stroke="#262626" stroke-width="0.5" stroke-linecap="butt" stroke-linejoin="miter" points="74.88,296.46 79.348,296.46"/>
<polyline fill="none" stroke="#262626" stroke-width="0.5" stroke-linecap="butt" stroke-linejoin="miter" points="521.28,296.46 516.812,296.46"/>
<polyline fill="none" stroke="#262626" stroke-width="0.5" stroke-linecap="butt" stroke-linejoin="miter" points="74.88,208.44 79.348,208.44"/>
<polyline fill="none" stroke="#262626" stroke-width="0.5" stroke-linecap="butt" stroke-linejoin="miter" points="521.28,208.44 516.812,208.44"/>
<polyline fill="none" stroke="#262626" stroke-width="0.5" stroke-linecap="butt" stroke-linejoin="miter" points="74.88,120.42 79.348,120.42"/>
<polyline fill="none" stroke="#262626" stroke-width="0.5" stroke-linecap="butt" stroke-linejoin="miter" points="521.28,120.42 516.812,120.42"/>
<polyline fill="none" stroke="#262626" stroke-width="0.5" stroke-linecap="butt" stroke-linejoin="miter" points="74.88,32.4 79.348,32.4"/>
<polyline fill="none" stroke="#262626" stroke-width="0.5" stroke-linecap="butt" stroke-linejoin="miter" points="521.28,32.4 516.812,32.4"/>
<text xml:space="preserve" transform="translate(63.8755,389.98) rotate(-0,6,-5.5)" font-family="FreeSans" font-weight="normal" font-style="normal" font-size="10"><tspan y="-1" fill="rgb(38,38,38)" x="0 ">0</tspan></text>
<text xml:space="preserve" transform="translate(63.8755,301.96) rotate(-0,6,-5.5)" font-family="FreeSans" font-weight="normal" font-style="normal" font-size="10"><tspan y="-1" fill="rgb(38,38,38)" x="0 ">5</tspan></text>
<text xml:space="preserve" transform="translate(57.8755,213.94) rotate(-0,12,-5.5)" font-family="FreeSans" font-weight="normal" font-style="normal" font-size="10"><tspan y="-1" fill="rgb(38,38,38)" x="0 6 ">10</tspan></text>
<text xml:space="preserve" transform="translate(57.8755,125.92) rotate(-0,12,-5.5)" font-family="FreeSans" font-weight="normal" font-style="normal" font-size="10"><tspan y="-1" fill="rgb(38,38,38)" x="0 6 ">15</tspan></text>
<text xml:space="preserve" transform="translate(57.8755,37.9) rotate(-0,12,-5.5)" font-family="FreeSans" font-weight="normal" font-style="normal" font-size="10"><tspan y="-1" fill="rgb(38,38,38)" x="0 6 ">20</tspan></text>
<polyline fill="none" stroke="#262626" stroke-width="0.5" stroke-linecap="square" stroke-linejoin="miter" stroke-dasharray="16,0" points="74.88,384.48 521.28,384.48"/>
<polyline fill="none" stroke="#262626" stroke-width="0.5" stroke-linecap="square" stroke-linejoin="miter" stroke-dasharray="16,0" points="74.88,32.4 521.28,32.4"/>
<polyline fill="none" stroke="#262626" stroke-width="0.5" stroke-linecap="square" stroke-linejoin="miter" stroke-dasharray="16,0" points="74.88,384.48 74.88,32.4"/>
<polyline fill="none" stroke="#262626" stroke-width="0.5" stroke-linecap="square" stroke-linejoin="miter" stroke-dasharray="16,0" points="521.28,384.48 521.28,32.4"/>
<text xml:space="preserve" transform="translate(23.3755,208.44) rotate(-90,30.5,0)" font-family="FreeSans" font-weight="normal" font-style="normal" font-size="11"><tspan y="-2" fill="rgb(38,38,38)" x="0 2 9 13 19 25 28 32 41 ">&apos;Area (mm</tspan><tspan font-size="9" y="-8" fill="rgb(38,38,38)" x="50 ">2</tspan><tspan y="-2" fill="rgb(38,38,38)" x="55 59 ">)&apos;</tspan></text>
<polygon fill="#440154" shape-rendering="crispEdges" points="119.52,384.48 111.708,370.257 111.708,384.48"/>
<polygon fill="#440154" shape-rendering="crispEdges" points="111.708,370.257 119.52,384.48 119.52,370.257"/>
<polygon fill="#440154" shape-rendering="crispEdges" points="175.32,384.48 167.508,184.177 167.508,384.48"/>
<polygon fill="#440154" shape-rendering="crispEdges" points="167.508,184.177 175.32,384.48 175.32,184.177"/>
<polygon fill="#440154" shape-rendering="crispEdges" points="231.12,384.48 223.308,362.688 223.308,384.48"/>
<polygon fill="#440154" shape-rendering="crispEdges" points="223.308,362.688 231.12,384.48 231.12,362.688"/>
<polygon fill="#440154" shape-rendering="crispEdges" points="286.92,384.48 279.108,184.127 279.108,384.48"/>
<polygon fill="#440154" shape-rendering="crispEdges" points="279.108,184.127 286.92,384.48 286.92,184.127"/>
<polygon fill="#440154" shape-rendering="crispEdges" points="342.72,384.48 334.908,364.891 334.908,384.48"/>
<polygon fill="#440154" shape-rendering="crispEdges" points="334.908,364.891 342.72,384.48 342.72,364.891"/>
<polygon fill="#440154" shape-rendering="crispEdges" points="398.52,384.48 390.708,182.788 390.708,384.48"/>
<polygon fill="#440154" shape-rendering="crispEdges" points="390.708,182.788 398.52,384.48 398.52,182.788"/>
<polygon fill="#440154" shape-rendering="crispEdges" points="454.32,384.48 446.508,214.375 446.508,384.48"/>
<polygon fill="#440154" shape-rendering="crispEdges" points="446.508,214.375 454.32,384.48 454.32,214.375"/>
<polyline fill="none" stroke="#000000" stroke-width="0.5" stroke-linecap="butt" stroke-linejoin="miter" points="119.52,370.257 111.708,370.257 111.708,384.48 119.52,384.48 119.52,370.257"/>
<polyline fill="none" stroke="#000000" stroke-width="0.5" stroke-linecap="butt" stroke-linejoin="miter" points="175.32,184.177 167.508,184.177 167.508,384.48 175.32,384.48 175.32,184.177"/>
<polyline fill="none" stroke="#000000" stroke-width="0.5" stroke-linecap="butt" stroke-linejoin="miter" points="231.12,362.688 223.308,362.688 223.308,384.48 231.12,384.48 231.12,362.688"/>
<polyline fill="none" stroke="#000000" stroke-width="0.5" stroke-linecap="butt" stroke-linejoin="miter" points="286.92,184.127 279.108,184.127 279.108,384.48 286.92,384.48 286.92,184.127"/>
<polyline fill="none" stroke="#000000" stroke-width="0.5" stroke-linecap="butt" stroke-linejoin="miter" points="342.72,364.891 334.908,364.891 334.908,384.48 342.72,384.48 342.72,364.891"/>
<polyline fill="none" stroke="#000000" stroke-width="0.5" stroke-linecap="butt" stroke-linejoin="miter" points="398.52,182.788 390.708,182.788 390.708,384.48 398.52,384.48 398.52,182.788"/>
<polyline fill="none" stroke="#000000" stroke-width="0.5" stroke-linecap="butt" stroke-linejoin="miter" points="454.32,214.375 446.508,214.375 446.508,384.48 454.32,384.48 454.32,214.375"/>
<polyline fill="none" stroke="#000000" stroke-width="0.5" stroke-linecap="butt" stroke-linejoin="round" points="74.88,384.48 521.28,384.48"/>
<polygon fill="#30678d" shape-rendering="crispEdges" points="129.564,384.48 121.752,182.89 121.752,384.48"/>
<polygon fill="#30678d" shape-rendering="crispEdges" points="121.752,182.89 129.564,384.48 129.564,182.89"/>
<polygon fill="#30678d" shape-rendering="crispEdges" points="185.364,384.48 177.552,184.088 177.552,384.48"/>
<polygon fill="#30678d" shape-rendering="crispEdges" points="177.552,184.088 185.364,384.48 185.364,184.088"/>
<polygon fill="#30678d" shape-rendering="crispEdges" points="241.164,384.48 233.352,182.89 233.352,384.48"/>
<polygon fill="#30678d" shape-rendering="crispEdges" points="233.352,182.89 241.164,384.48 241.164,182.89"/>
<polygon fill="#30678d" shape-rendering="crispEdges" points="296.964,384.48 289.152,183.379 289.152,384.48"/>
<polygon fill="#30678d" shape-rendering="crispEdges" points="289.152,183.379 296.964,384.48 296.964,183.379"/>
<polygon fill="#30678d" shape-rendering="crispEdges" points="352.764,384.48 344.952,203.918 344.952,384.48"/>
<polygon fill="#30678d" shape-rendering="crispEdges" points="344.952,203.918 352.764,384.48 352.764,203.918"/>
<polygon fill="#30678d" shape-rendering="crispEdges" points="408.564,384.48 400.752,182.816 400.752,384.48"/>
<polygon fill="#30678d" shape-rendering="crispEdges" points="400.752,182.816 408.564,384.48 408.564,182.816"/>
<polygon fill="#30678d" shape-rendering="crispEdges" points="464.364,384.48 456.552,182.89 456.552,384.48"/>
<polygon fill="#30678d" shape-rendering="crispEdges" points="456.552,182.89 464.364,384.48 464.364,182.89"/>
<polyline fill="none" stroke="#000000" stroke-width="0.5" stroke-linecap="butt" stroke-linejoin="miter" points="129.564,182.89 121.752,182.89 121.752,384.48 129.564,384.48 129.564,182.89"/>
<polyline fill="none" stroke="#000000" stroke-width="0.5" stroke-linecap="butt" stroke-linejoin="miter" points="185.364,184.088 177.552,184.088 177.552,384.48 185.364,384.48 185.364,184.088"/>
<polyline fill="none" stroke="#000000" stroke-width="0.5" stroke-linecap="butt" stroke-linejoin="miter" points="241.164,182.89 233.352,182.89 233.352,384.48 241.164,384.48 241.164,182.89"/>
<polyline fill="none" stroke="#000000" stroke-width="0.5" stroke-linecap="butt" stroke-linejoin="miter" points="296.964,183.379 289.152,183.379 289.152,384.48 296.964,384.48 296.964,183.379"/>
<polyline fill="none" stroke="#000000" stroke-width="0.5" stroke-linecap="butt" stroke-linejoin="miter" points="352.764,203.918 344.952,203.918 344.952,384.48 352.764,384.48 352.764,203.918"/>
<polyline fill="none" stroke="#000000" stroke-width="0.5" stroke-linecap="butt" stroke-linejoin="miter" points="408.564,182.816 400.752,182.816 400.752,384.48 408.564,384.48 408.564,182.816"/>
<polyline fill="none" stroke="#000000" stroke-width="0.5" stroke-linecap="butt" stroke-linejoin="miter" points="464.364,182.89 456.552,182.89 456.552,384.48 464.364,384.48 464.364,182.89"/>
<polygon fill="#35b778" shape-rendering="crispEdges" points="139.608,384.48 131.796,101.421 131.796,384.48"/>
<polygon fill="#35b778" shape-rendering="crispEdges" points="131.796,101.421 139.608,384.48 139.608,101.421"/>
<polygon fill="#35b778" shape-rendering="crispEdges" points="195.408,384.48 187.596,182.89 187.596,384.48"/>
<polygon fill="#35b778" shape-rendering="crispEdges" points="187.596,182.89 195.408,384.48 195.408,182.89"/>
<polygon fill="#35b778" shape-rendering="crispEdges" points="251.208,384.48 243.396,159.758 243.396,384.48"/>
<polygon fill="#35b778" shape-rendering="crispEdges" points="243.396,159.758 251.208,384.48 251.208,159.758"/>
<polygon fill="#35b778" shape-rendering="crispEdges" points="307.008,384.48 299.196,182.89 299.196,384.48"/>
<polygon fill="#35b778" shape-rendering="crispEdges" points="299.196,182.89 307.008,384.48 307.008,182.89"/>
<polygon fill="#35b778" shape-rendering="crispEdges" points="362.808,384.48 354.996,182.89 354.996,384.48"/>
<polygon fill="#35b778" shape-rendering="crispEdges" points="354.996,182.89 362.808,384.48 362.808,182.89"/>
<polygon fill="#35b778" shape-rendering="crispEdges" points="418.608,384.48 410.796,182.89 410.796,384.48"/>
<polygon fill="#35b778" shape-rendering="crispEdges" points="410.796,182.89 418.608,384.48 418.608,182.89"/>
<polygon fill="#35b778" shape-rendering="crispEdges" points="474.408,384.48 466.596,137.678 466.596,384.48"/>
<polygon fill="#35b778" shape-rendering="crispEdges" points="466.596,137.678 474.408,384.48 474.408,137.678"/>
<polyline fill="none" stroke="#000000" stroke-width="0.5" stroke-linecap="butt" stroke-linejoin="miter" points="139.608,101.421 131.796,101.421 131.796,384.48 139.608,384.48 139.608,101.421"/>
<polyline fill="none" stroke="#000000" stroke-width="0.5" stroke-linecap="butt" stroke-linejoin="miter" points="195.408,182.89 187.596,182.89 187.596,384.48 195.408,384.48 195.408,182.89"/>
<polyline fill="none" stroke="#000000" stroke-width="0.5" stroke-linecap="butt" stroke-linejoin="miter" points="251.208,159.758 243.396,159.758 243.396,384.48 251.208,384.48 251.208,159.758"/>
<polyline fill="none" stroke="#000000" stroke-width="0.5" stroke-linecap="butt" stroke-linejoin="miter" points="307.008,182.89 299.196,182.89 299.196,384.48 307.008,384.48 307.008,182.89"/>
<polyline fill="none" stroke="#000000" stroke-width="0.5" stroke-linecap="butt" stroke-linejoin="miter" points="362.808,182.89 354.996,182.89 354.996,384.48 362.808,384.48 362.808,182.89"/>
<polyline fill="none" stroke="#000000" stroke-width="0.5" stroke-linecap="butt" stroke-linejoin="miter" points="418.608,182.89 410.796,182.89 410.796,384.48 418.608,384.48 418.608,182.89"/>
<polyline fill="none" stroke="#000000" stroke-width="0.5" stroke-linecap="butt" stroke-linejoin="miter" points="474.408,137.678 466.596,137.678 466.596,384.48 474.408,384.48 474.408,137.678"/>
<polygon fill="#fde724" shape-rendering="crispEdges" points="205.452,384.48 197.64,154.631 197.64,384.48"/>
<polygon fill="#fde724" shape-rendering="crispEdges" points="197.64,154.631 205.452,384.48 205.452,154.631"/>
<polygon fill="#fde724" shape-rendering="crispEdges" points="317.052,384.48 309.24,169.115 309.24,384.48"/>
<polygon fill="#fde724" shape-rendering="crispEdges" points="309.24,169.115 317.052,384.48 317.052,169.115"/>
<polygon fill="#fde724" shape-rendering="crispEdges" points="428.652,384.48 420.84,192.997 420.84,384.48"/>
<polygon fill="#fde724" shape-rendering="crispEdges" points="420.84,192.997 428.652,384.48 428.652,192.997"/>
<polygon fill="#fde724" shape-rendering="crispEdges" points="484.452,384.48 476.64,44.5812 476.64,384.48"/>
<polygon fill="#fde724" shape-rendering="crispEdges" points="476.64,44.5812 484.452,384.48 484.452,44.5812"/>
<polyline fill="none" stroke="#000000" stroke-width="0.5" stroke-linecap="butt" stroke-linejoin="miter" points="205.452,154.631 197.64,154.631 197.64,384.48 205.452,384.48 205.452,154.631"/>
<polyline fill="none" stroke="#000000" stroke-width="0.5" stroke-linecap="butt" stroke-linejoin="miter" points="317.052,169.115 309.24,169.115 309.24,384.48 317.052,384.48 317.052,169.115"/>
<polyline fill="none" stroke="#000000" stroke-width="0.5" stroke-linecap="butt" stroke-linejoin="miter" points="428.652,192.997 420.84,192.997 420.84,384.48 428.652,384.48 428.652,192.997"/>
<polyline fill="none" stroke="#000000" stroke-width="0.5" stroke-linecap="butt" stroke-linejoin="miter" points="484.452,44.5812 476.64,44.5812 476.64,384.48 484.452,384.48 484.452,44.5812"/>
</g>
</g>
</svg>
